# xmcd
# 
# Track frame offsets:
#     183
#     55725
#     103618
#     157893
# 
# Disc length: 2412
# 
# Revision: 2
# Processed by: cddbd v1.5.2PL0 Copyright (c) Steve Scherf et al.
# Submitted via: BonkEnc v1.0.8
# 
DISCID=25096a04
DTITLE=Miles Davis - [1971.10.22] Neue Stadthalle, Switzerland 10/22/'71
DYEAR=1971
DGENRE=Contemporary Jazz
TTITLE0=Directions
TTITLE1=Sivad - Honky Tonk
TTITLE2=Sivad - What I Say
TTITLE3=Sanctuary
EXTD=YEAR: 1971
EXTT0=
EXTT1=
EXTT2=
EXTT3=
PLAYORDER=
